<svg viewBox="0 0 1000 1000" fill="white" xmlns="http://www.w3.org/2000/svg">
  <rect width="1000" height="1000" rx="200" fill="#0D0C0B"/>
  <g fill="white">
    <path d="M401.45,836.83l168.45-168.45c2.83-2.83,7.04-3.78,10.81-2.44l37.74,13.4c15.08,5.35,31.9,1.56,43.22-9.75l169.46-169.43-46.57-46.57-205.41,205.41c-2.83,2.83-7.04,3.78-10.81,2.44l-37.76-13.41c-15.09-5.36-31.91-1.56-43.23,9.76l-132.46,132.46,46.57,46.57Z" />
    <path d="M309.87,742.59l124.18-124.18c2.83-2.83,7.03-3.78,10.81-2.44l37.75,13.4c15.08,5.35,31.9,1.56,43.22-9.76l119.48-119.45-46.57-46.57-155.44,155.44c-2.83,2.83-7.04,3.78-10.81,2.44l-37.77-13.41c-15.09-5.36-31.91-1.56-43.23,9.76l-88.19,88.19,46.57,46.57Z" />
    <path d="M215.45,650.83l79.91-79.91c2.83-2.83,7.03-3.78,10.81-2.44l37.77,13.41c15.08,5.35,31.9,1.55,43.22-9.76l71.99-71.99-46.57-46.57-107.97,107.97c-2.83,2.83-7.03,3.78-10.81,2.44l-37.77-13.41c-15.09-5.36-31.91-1.56-43.23,9.76l-43.92,43.92,46.57,46.57Z" />
    <path d="M401.45,163.17l168.45,168.45c2.83,2.83,7.04,3.78,10.81,2.44l37.74-13.4c15.08-5.35,31.9-1.56,43.22,9.75l169.11,169.08-46.57,46.57-205.07-205.07c-2.83-2.83-7.04-3.78-10.81-2.44l-37.76,13.41c-15.09,5.36-31.91,1.56-43.23-9.76l-132.46-132.46,46.57-46.57Z" />
    <path d="M308.45,256.17l124.18,124.18c2.83,2.83,7.03,3.78,10.81,2.44l37.75-13.4c15.08-5.35,31.9-1.56,43.22,9.76l120.9,120.87-46.57,46.57-156.85-156.85c-2.83-2.83-7.04-3.78-10.81-2.44l-37.77,13.41c-15.09,5.36-31.91,1.56-43.23-9.76l-88.19-88.19,46.57-46.57Z" />
    <path d="M215.45,349.17l79.91,79.91c2.83,2.83,7.03,3.78,10.81,2.44l37.77-13.41c15.08-5.35,31.9-1.55,43.22,9.76l43.12,43.12-46.57,46.57-107.97-107.97c-2.83-2.83-7.03-3.78-10.81-2.44l-37.77,13.41c-15.09,5.36-31.91,1.56-43.23-9.76l-43.92-43.92,46.57-46.57Z" />
  </g>
</svg>
