<svg viewBox="200 150 1400 530" fill="white" xmlns="http://www.w3.org/2000/svg">
  <g>
    <path d="M743.13,530.38V254.92h175.99v37.7h-136.01v77.27h113.04v37.67h-113.04v85.11h136.01v37.7h-175.99Z" />
    <path d="M1022.41,536.11c-19.27,0-35.86-4.79-49.84-14.35-13.95-9.56-24.72-22.6-32.31-39.1-7.6-16.53-11.36-35.12-11.36-55.76s3.8-39.38,11.46-55.76c7.66-16.38,18.52-29.33,32.63-38.82,14.07-9.5,30.82-14.26,50.22-14.26s35.93,4.76,49.25,14.26c13.32,9.5,23.38,22.48,30.2,38.91,6.82,16.44,10.24,34.99,10.24,55.66s-3.46,39.19-10.34,55.66c-6.88,16.44-17.03,29.48-30.42,39.1-13.39,9.62-29.95,14.45-49.72,14.45ZM1027.95,499.96c13.14,0,23.85-3.11,32.13-9.37,8.31-6.26,14.35-14.85,18.18-25.84,3.83-10.96,5.73-23.57,5.73-37.86s-1.93-26.9-5.82-37.89c-3.89-10.96-9.9-19.49-17.99-25.62-8.09-6.13-18.4-9.18-30.88-9.18-13.26,0-24.16,3.27-32.72,9.74-8.53,6.51-14.88,15.25-19.02,26.21-4.14,10.99-6.23,23.22-6.23,36.74s2.09,25.96,6.23,37.02c4.14,11.02,10.4,19.8,18.74,26.31,8.37,6.48,18.9,9.74,31.66,9.74ZM1083.99,530.38v-148.62h-4.58v-126.83h40.16v275.45h-35.58Z" />
    <path d="M1240.27,536.11c-19.27,0-35.86-4.79-49.84-14.35-13.95-9.56-24.72-22.6-32.31-39.1-7.6-16.53-11.36-35.12-11.36-55.76s3.8-39.38,11.46-55.76c7.66-16.38,18.52-29.33,32.63-38.82,14.07-9.5,30.82-14.26,50.22-14.26s35.93,4.76,49.25,14.26c13.32,9.5,23.38,22.48,30.2,38.91,6.82,16.44,10.24,34.99,10.24,55.66s-3.46,39.19-10.34,55.66c-6.88,16.44-17.03,29.48-30.42,39.1-13.39,9.62-29.95,14.45-49.72,14.45ZM1243.32,627.91c-11.08,0-21.82-1.71-32.22-5.17-10.4-3.42-19.86-8.5-28.39-15.19-8.56-6.69-15.63-14.94-21.23-24.78l36.89-18.74c4.48,8.81,10.83,15.25,19.15,19.33,8.28,4.08,17.03,6.1,26.21,6.1,11.33,0,21.01-1.99,29.05-6.01,8.03-4.02,14.13-10.06,18.27-18.09,4.14-8.03,6.16-17.96,6.04-29.82v-57.78h4.76v-153.98h35.4v212.13c0,5.48-.19,10.71-.56,15.69-.4,4.95-1.09,9.93-2.12,14.91-2.93,13.88-8.5,25.37-16.75,34.43-8.22,9.06-18.68,15.81-31.35,20.27-12.7,4.45-27.08,6.69-43.15,6.69ZM1245.82,499.96c13.14,0,23.85-3.11,32.13-9.37,8.31-6.26,14.35-14.85,18.18-25.84,3.83-10.96,5.73-23.57,5.73-37.86s-1.93-26.9-5.82-37.89c-3.89-10.96-9.9-19.49-17.99-25.62-8.09-6.13-18.4-9.18-30.88-9.18-13.26,0-24.16,3.27-32.72,9.74-8.53,6.51-14.88,15.25-19.02,26.21-4.14,10.99-6.23,23.22-6.23,36.74s2.09,25.96,6.23,37.02c4.14,11.02,10.4,19.8,18.74,26.31,8.37,6.48,18.9,9.74,31.66,9.74Z" />
    <path d="M1467.47,536.11c-20.52,0-38.54-4.48-54.04-13.48-15.47-9-27.52-21.54-36.14-37.67-8.59-16.16-12.89-34.87-12.89-56.16,0-22.57,4.23-42.12,12.7-58.71,8.47-16.56,20.3-29.39,35.49-38.45,15.16-9.06,32.81-13.57,52.99-13.57s38.95,4.89,53.73,14.63,25.87,23.63,33.19,41.59c7.35,17.99,10.24,39.35,8.72,64.07h-39.97v-14.51c-.28-23.97-4.83-41.72-13.7-53.17-8.84-11.49-22.35-17.22-40.44-17.22-20.02,0-35.09,6.29-45.14,18.93-10.09,12.61-15.13,30.85-15.13,54.7s5.04,40.25,15.13,52.71c10.06,12.42,24.59,18.65,43.62,18.65,12.48,0,23.29-2.83,32.41-8.53,9.12-5.67,16.22-13.79,21.33-24.38l39.23,12.42c-8.03,18.49-20.24,32.81-36.55,42.96-16.31,10.12-34.49,15.19-54.51,15.19ZM1393.85,438.35v-31.16h147.47v31.16h-147.47Z" />
  </g>
  <g>
    <path d="M381.93,594.4l100.89-100.89c1.7-1.7,4.21-2.26,6.47-1.46l22.6,8.03c9.03,3.21,19.11.93,25.89-5.84l101.5-101.48-27.9-27.9-123.03,123.03c-1.7,1.7-4.21,2.26-6.47,1.46l-22.62-8.03c-9.04-3.21-19.11-.93-25.89,5.85l-79.34,79.34,27.9,27.9Z" />
    <path d="M327.07,537.95l74.38-74.38c1.69-1.69,4.21-2.26,6.47-1.46l22.61,8.02c9.03,3.21,19.11.93,25.89-5.84l71.56-71.54-27.9-27.9-93.1,93.1c-1.69,1.69-4.21,2.26-6.47,1.46l-22.62-8.03c-9.04-3.21-19.11-.93-25.89,5.85l-52.82,52.82,27.9,27.9Z" />
    <path d="M270.52,482.99l47.86-47.86c1.69-1.69,4.21-2.26,6.47-1.46l22.62,8.03c9.04,3.21,19.11.93,25.89-5.85l43.12-43.12-27.9-27.9-64.67,64.67c-1.69,1.69-4.21,2.26-6.47,1.46l-22.62-8.03c-9.04-3.21-19.11-.93-25.89,5.85l-26.31,26.31,27.9,27.9Z" />
    <path d="M381.93,190.91l100.89,100.89c1.7,1.7,4.21,2.26,6.47,1.46l22.6-8.03c9.03-3.21,19.11-.93,25.89,5.84l101.29,101.27-27.9,27.9-122.82-122.82c-1.7-1.7-4.21-2.26-6.47-1.46l-22.62,8.03c-9.04,3.21-19.11.93-25.89-5.85l-79.34-79.34,27.9-27.9Z" />
    <path d="M326.22,246.61l74.38,74.38c1.69,1.69,4.21,2.26,6.47,1.46l22.61-8.02c9.03-3.21,19.11-.93,25.89,5.84l72.41,72.39-27.9,27.9-93.95-93.95c-1.69-1.69-4.21-2.26-6.47-1.46l-22.62,8.03c-9.04,3.21-19.11.93-25.89-5.85l-52.82-52.82,27.9-27.9Z" />
    <path d="M270.52,302.31l47.86,47.86c1.69,1.69,4.21,2.26,6.47,1.46l22.62-8.03c9.04-3.21,19.11-.93,25.89,5.85l43.12,43.12-27.9,27.9-64.67-64.67c-1.69-1.69-4.21-2.26-6.47-1.46l-22.62,8.03c-9.04,3.21-19.11.93-25.89-5.85l-26.31-26.31,27.9-27.9Z" />
  </g>
</svg>
